#!OML:ASF \\Waltz\H\Terrain\Patient Classification 1\Animal1\Tuesday\Animal1.ASF
:FULLY-SPECIFIED
:DEGREES
2839
root 13.331 14.6852 2.07196 24.985 26.9899 -6.31466
lowerback 37.1492 0.132097 -2.55332
upperback 2.88536 -0.566848 1.08687
thorax -15.347 -0.0119184 2.79921
lowerneck -3.69271 -2.80266 -7.87172
upperneck -28.88 -0.184288 16.2316
head -8.09204 -0.554255 7.03655
rclavicle 1.35174e-014 -2.3059e-014
rhumerus -81.3299 19.8335 -110.012
rradius 44.4536
rwrist -10.0986
rhand -11.7805 24.6157
rfingers 7.12502
rthumb 14.2685 355.126
lclavicle 1.35174e-014 -2.3059e-014
lhumerus -74.4128 -14.7649 93.461
lradius 41.7095
lwrist -28.7872
lhand 4.85797 -321.804
lfingers 7.12502
lthumb 30.2345 1145.74
rfemur -70.5459 15.2592 16.797
rtibia 66.5925
rfoot -21.4977 -9.61547
rtoes 4.06352
lfemur -70.9681 1.42758 7.86526
ltibia 52.1855
lfoot -14.0445 2.3442
ltoes -41.5868
2840
root 13.3471 14.6804 2.0721 24.7483 26.9558 -6.79038
lowerback 37.4299 0.0375746 -2.1811
upperback 2.80333 -0.529483 1.16143
thorax -15.5599 -0.0127122 2.67034
lowerneck -3.23357 -2.8729 -7.44503
upperneck -29.5417 -0.240845 16.1584
head -8.40807 -0.650011 6.98746
rclavicle 2.38542e-015 4.53229e-014
rhumerus -81.4938 19.8557 -110.38
rradius 44.3236
rwrist -10.1505
rhand -11.6376 24.8709
rfingers 7.12502
rthumb 14.4062 355.391
lclavicle 2.38542e-015 4.53229e-014
lhumerus -74.4259 -14.6936 93.4987
lradius 41.4728
lwrist -28.7725
lhand 4.53357 -322.188
lfingers 7.12502
lthumb 29.925 1145.41
rfemur -70.4257 15.4382 17.2085
rtibia 66.4986
rfoot -21.1235 -10.7439
rtoes -1.15218
lfemur -70.9913 1.6977 8.16099
ltibia 52.4783
lfoot -14.166 2.48649
ltoes -42.4041
2841
root 13.3614 14.6802 2.07004 24.6235 27.0174 -7.07689
lowerback 37.7629 -0.0986467 -1.77753
upperback 2.68454 -0.537938 1.18386
thorax -15.8339 -0.0356851 2.48894
lowerneck -1.69481 -3.09134 -6.87304
upperneck -31.4307 -0.479396 15.8738
head -9.36029 -0.884805 6.96016
rclavicle -1.90833e-014 3.65764e-014
rhumerus -81.6796 19.8212 -110.722
rradius 44.2862
rwrist -10.3418
rhand -11.6349 24.8173
rfingers 7.12502
rthumb 14.4089 355.337
lclavicle -1.90833e-014 3.65764e-014
lhumerus -74.4622 -14.7162 93.5195
lradius 41.2518
lwrist -28.7455
lhand 3.93013 -322.463
lfingers 7.12502
lthumb 29.349 1145.24
rfemur -70.3045 15.4383 17.4947
rtibia 66.4306
rfoot -21.2367 -10.7846
rtoes -0.912685
lfemur -71.0987 1.86361 8.29418
ltibia 52.6823
lfoot -14.2983 2.29563
ltoes -41.7985
2842
root 13.3762 14.6864 2.06835 24.7186 26.9752 -6.97309
lowerback 37.9316 -0.172841 -1.79693
upperback 2.68116 -0.643963 1.16472
thorax -15.8966 -0.0784392 2.52774
lowerneck -2.07922 -2.97114 -7.26278
upperneck -31.4212 -0.182752 16.3277
head -9.31003 -0.722866 7.18025
rclavicle 3.18055e-015 4.92986e-014
rhumerus -81.7268 19.8866 -110.885
rradius 44.3291
rwrist -10.5503
rhand -11.7978 24.4713
rfingers 7.12502
rthumb 14.2519 354.98
lclavicle 3.18055e-015 4.92986e-014
lhumerus -74.305 -14.6518 93.4689
lradius 41.1688
lwrist -28.6905
lhand 3.42062 -322.451
lfingers 7.12502
lthumb 28.8624 1145.34
rfemur -70.276 15.297 17.3944
rtibia 66.4272
rfoot -21.8058 -9.58401
rtoes 4.5609
lfemur -71.2058 1.8941 8.06925
ltibia 52.7916
lfoot -14.3582 2.03025
ltoes -40.9082
2843
root 13.385 14.6894 2.07349 24.8546 26.6774 -6.7049
lowerback 38.0448 -0.0550732 -2.18641
upperback 2.71047 -0.667675 1.11805
thorax -15.8981 -0.0649684 2.69421
lowerneck -2.1308 -2.95627 -7.46339
upperneck -31.7211 -0.0689248 16.578
head -9.41986 -0.667971 7.33054
rclavicle -1.59028e-015 -1.59028e-015
rhumerus -81.4797 19.7079 -110.645
rradius 44.2265
rwrist -10.1869
rhand -11.9208 23.304
rfingers 7.12502
rthumb 14.1333 353.805
lclavicle -1.59028e-015 -1.59028e-015
lhumerus -74.108 -14.5964 93.328
lradius 41.0841
lwrist -28.556
lhand 3.05986 -322.444
lfingers 7.12502
lthumb 28.5178 1145.4
rfemur -70.3284 15.3855 17.0212
rtibia 66.4543
rfoot -21.7101 -9.89671
rtoes 2.54234
lfemur -71.1142 2.02291 7.63548
ltibia 52.8693
lfoot -14.4648 1.93132
ltoes -40.9064
2844
root 13.39 14.694 2.0826 24.9692 26.4057 -6.485
lowerback 38.1905 0.0857582 -2.50468
upperback 2.6557 -0.631327 1.10162
thorax -16.0171 -0.0269811 2.83082
lowerneck -1.88707 -3.03076 -7.47952
upperneck -32.1204 -0.152058 16.5789
head -9.6027 -0.719586 7.37657
rclavicle 4.69132e-014 -1.90833e-014
rhumerus -81.363 19.4782 -110.437
rradius 44.1848
rwrist -9.76522
rhand -12.2934 22.2686
rfingers 7.12502
rthumb 13.7742 352.745
lclavicle 4.69132e-014 -1.90833e-014
lhumerus -74.0073 -14.5447 93.2105
lradius 40.9079
lwrist -28.6565
lhand 2.53842 -322.428
lfingers 7.12502
lthumb 28.0194 1145.5
rfemur -70.3555 15.5357 16.6914
rtibia 66.4773
rfoot -21.6745 -9.8993
rtoes 2.16664
lfemur -70.9862 2.19636 7.23857
ltibia 52.9652
lfoot -14.6146 1.90937
ltoes -41.1547
2845
root 13.4017 14.6959 2.09083 25.0337 26.4765 -6.88093
lowerback 38.1608 0.0078776 -2.09796
upperback 2.51532 -0.543661 1.20804
thorax -16.186 -0.0099135 2.69558
lowerneck -1.55731 -3.06505 -7.28436
upperneck -32.5488 -0.218121 16.3666
head -9.82596 -0.77037 7.30601
rclavicle 3.97569e-015 -1.90833e-014
rhumerus -81.333 19.2861 -110.31
rradius 44.2151
rwrist -9.79546
rhand -12.6621 22.3699
rfingers 7.12502
rthumb 13.4189 352.822
lclavicle 3.97569e-015 -1.90833e-014
lhumerus -73.9208 -14.4536 93.0465
lradius 40.7012
lwrist -29.1275
lhand 1.83299 -322.29
lfingers 7.12502
lthumb 27.3449 1145.75
rfemur -70.4808 15.6145 16.9984
rtibia 66.4415
rfoot -21.9959 -8.91879
rtoes 6.63137
lfemur -71.2415 2.52642 7.49642
ltibia 53.1258
lfoot -14.6965 1.71381
ltoes -41.1691
2846
root 13.4214 14.6861 2.0926 25.2816 26.677 -7.32196
lowerback 37.9916 -0.199889 -1.45975
upperback 2.3142 -0.521708 1.31089
thorax -16.3727 -0.0366334 2.46343
lowerneck -1.45287 -3.06784 -7.01997
upperneck -32.7989 -0.27663 16.0192
head -9.9452 -0.801871 7.14886
rclavicle -1.51076e-014 8.26944e-014
rhumerus -81.1848 19.0854 -110.103
rradius 44.0773
rwrist -9.95744
rhand -11.9783 23.3481
rfingers 7.12502
rthumb 14.0779 353.845
lclavicle -1.51076e-014 8.26944e-014
lhumerus -73.8715 -14.2658 92.7324
lradius 40.5346
lwrist -29.7141
lhand 1.32518 -322.364
lfingers 7.12502
lthumb 26.859 1145.75
rfemur -70.8753 15.541 17.3147
rtibia 66.4158
rfoot -21.954 -8.7064
rtoes 7.34745
lfemur -71.8669 2.84241 7.83201
ltibia 53.3366
lfoot -14.7247 1.62528
ltoes -41.3482
2847
root 13.4423 14.6692 2.09164 26.1032 26.6674 -7.00471
lowerback 37.5285 -0.328956 -1.42504
upperback 2.09598 -0.68058 1.25839
thorax -16.4508 -0.105765 2.46067
lowerneck -1.54954 -3.02007 -6.72646
upperneck -32.9173 -0.300835 15.5287
head -9.98458 -0.796927 6.91295
rclavicle -1.98785e-014 2.54444e-014
rhumerus -81.1605 18.9841 -110.005
rradius 44.0273
rwrist -9.93868
rhand -10.3978 24.1566
rfingers 7.12502
rthumb 15.6006 354.766
lclavicle -1.98785e-014 2.54444e-014
lhumerus -73.8336 -14.0627 92.447
lradius 40.4708
lwrist -30.1363
lhand 0.965301 -322.503
lfingers 7.12502
lthumb 26.5146 1145.66
rfemur -71.7461 15.2509 16.8059
rtibia 66.4784
rfoot -21.5919 -9.60049
rtoes 2.81347
lfemur -72.7139 2.98482 7.45102
ltibia 53.5254
lfoot -14.7086 1.78245
ltoes -41.3569
2848
root 13.4574 14.662 2.09686 26.4511 26.6341 -6.96988
lowerback 37.2777 -0.389621 -1.32067
upperback 2.00752 -0.710884 1.2792
thorax -16.5771 -0.12278 2.44416
lowerneck -1.51153 -2.95436 -6.56858
upperneck -33.0448 -0.26692 15.209
head -10.0554 -0.769447 6.77004
rclavicle 3.02153e-014 -8.50798e-014
rhumerus -81.4157 18.9612 -110.188
rradius 44.2029
rwrist -10.0535
rhand -9.83861 24.1536
rfingers 7.12502
rthumb 16.1391 354.806
lclavicle 3.02153e-014 -8.50798e-014
lhumerus -73.7305 -13.9403 92.2381
lradius 40.977
lwrist -28.7306
lhand 2.97195 -322.344
lfingers 7.12502
lthumb 28.4338 1145.52
rfemur -72.1314 15.1856 16.6701
rtibia 66.5159
rfoot -21.4434 -10.3271
rtoes -0.158999
lfemur -73.0823 3.19291 7.28861
ltibia 53.6793
lfoot -14.8046 1.84195
ltoes -41.5309
2849
root 13.4645 14.6779 2.10093 25.6309 26.7843 -7.41834
lowerback 38.0945 -0.489807 -0.847037
upperback 1.97796 -0.610789 1.43647
thorax -16.8228 -0.104541 2.32697
lowerneck -1.42381 -2.94914 -6.63971
upperneck -33.1706 -0.265188 15.1827
head -10.1205 -0.76137 6.78545
rclavicle 6.91771e-014 3.97569e-015
rhumerus -81.5098 18.9413 -110.307
rradius 44.2994
rwrist -10.2148
rhand -10.596 23.8752
rfingers 7.12502
rthumb 15.4097 354.47
lclavicle 6.91771e-014 3.97569e-015
lhumerus -73.6516 -13.9332 92.1847
lradius 40.8404
lwrist -28.9673
lhand 2.67553 -322.42
lfingers 7.12502
lthumb 28.1505 1145.49
rfemur -71.2278 15.35 17.3094
rtibia 66.4908
rfoot -21.4973 -10.5352
rtoes -0.338623
lfemur -72.4712 3.17928 7.55004
ltibia 53.7719
lfoot -15.0366 1.7205
ltoes -41.759
2850
root 13.4673 14.6855 2.09944 25.2096 26.8433 -7.39821
lowerback 38.4395 -0.541056 -0.717251
upperback 2.08986 -0.601365 1.51849
thorax -16.8202 -0.106492 2.34578
lowerneck -1.37842 -3.02552 -6.77506
upperneck -33.2982 -0.378543 15.2062
head -10.1597 -0.804722 6.83717
rclavicle -1.90833e-014 -1.27222e-014
rhumerus -81.2907 18.9167 -110.197
rradius 44.2415
rwrist -10.3492
rhand -11.2697 23.8591
rfingers 7.12502
rthumb 14.7607 354.405
lclavicle -1.90833e-014 -1.27222e-014
lhumerus -73.5088 -14.0489 92.2966
lradius 40.5888
lwrist -29.4735
lhand 1.5713 -322.739
lfingers 7.12502
lthumb 27.0945 1145.34
rfemur -70.7024 15.352 17.4197
rtibia 66.5164
rfoot -21.5584 -10.5416
rtoes -0.0806741
lfemur -72.1108 2.99939 7.45466
ltibia 53.817
lfoot -15.0353 1.48888
ltoes -40.9939
2851
root 13.4719 14.6786 2.10175 25.4808 26.7277 -7.04572
lowerback 38.1596 -0.52391 -0.949614
upperback 2.15185 -0.67923 1.51266
thorax -16.6319 -0.125805 2.4949
lowerneck -1.54574 -3.0605 -6.73156
upperneck -33.3264 -0.440059 15.1304
head -10.1322 -0.827345 6.80066
rclavicle 5.08889e-014 3.65764e-014
rhumerus -81.0195 19.0944 -110.225
rradius 44.1522
rwrist -10.5809
rhand -11.4073 23.7807
rfingers 7.12502
rthumb 14.6281 354.317
lclavicle 5.08889e-014 3.65764e-014
lhumerus -73.2365 -14.1855 92.4428
lradius 40.7042
lwrist -28.7528
lhand 2.05989 -322.428
lfingers 7.12502
lthumb 27.5619 1145.57
rfemur -70.9171 15.2874 16.9875
rtibia 66.5779
rfoot -21.5533 -10.5902
rtoes -0.699666
lfemur -72.2406 2.91395 7.12347
ltibia 53.8415
lfoot -14.964 1.25123
ltoes -39.6577
2852
root 13.4836 14.6851 2.11069 25.4476 26.634 -6.87382
lowerback 38.2519 -0.586268 -1.0743
upperback 2.17654 -0.810752 1.50641
thorax -16.6295 -0.172127 2.616
lowerneck -1.87076 -2.97251 -6.58162
upperneck -33.144 -0.332696 15.0106
head -10.0199 -0.771374 6.69815
rclavicle -5.80451e-014 7.15625e-015
rhumerus -80.9865 19.5345 -110.607
rradius 44.104
rwrist -10.7308
rhand -11.1914 23.6133
rfingers 7.12502
rthumb 14.8361 354.164
lclavicle -5.80451e-014 7.15625e-015
lhumerus -73.0964 -14.1811 92.4687
lradius 40.7291
lwrist -28.6135
lhand 2.36486 -322.142
lfingers 7.12502
lthumb 27.8535 1145.81
rfemur -70.7347 15.297 16.7935
rtibia 66.6021
rfoot -21.7585 -10.336
rtoes 0.0564894
lfemur -72.0393 2.82276 6.9093
ltibia 53.8475
lfoot -15.0745 1.20846
ltoes -39.5163
2853
root 13.4942 14.6932 2.11909 25.2035 26.5699 -6.86576
lowerback 38.5035 -0.644689 -1.09466
upperback 2.15403 -0.883093 1.55909
thorax -16.749 -0.196621 2.72321
lowerneck -2.06311 -2.91264 -6.60892
upperneck -32.8738 -0.271262 14.9965
head -9.88796 -0.730936 6.66908
rclavicle 1.35174e-014 -4.92986e-014
rhumerus -81.1051 19.9282 -110.951
rradius 44.0366
rwrist -10.815
rhand -11.276 23.5562
rfingers 7.12502
rthumb 14.7546 354.101
lclavicle 1.35174e-014 -4.92986e-014
lhumerus -73.0781 -14.0932 92.4371
lradius 40.7409
lwrist -28.6956
lhand 2.39862 -322.231
lfingers 7.12502
lthumb 27.8858 1145.72
rfemur -70.3897 15.3925 16.8049
rtibia 66.6074
rfoot -22.0387 -9.6634
rtoes 3.68826
lfemur -71.7335 2.82938 6.78858
ltibia 53.8669
lfoot -15.1591 1.03028
ltoes -39.5511
